<?xml version="1.0" encoding="UTF-8"?>
<svg xmlns="http://www.w3.org/2000/svg" xmlns:xlink="http://www.w3.org/1999/xlink" width="150px" height="38px" viewBox="0 0 150 38" version="1.1">
<defs>
<clipPath id="clip1">
  <path d="M 33 0 L 36 0 L 36 37.808594 L 33 37.808594 Z M 33 0 "/>
</clipPath>
<clipPath id="clip2">
  <path d="M 41.703125 0.09375 L 149.808594 0.09375 L 149.808594 25.671875 L 41.703125 25.671875 Z M 41.703125 0.09375 "/>
</clipPath>
<clipPath id="clip3">
  <path d="M 87.164062 31.710938 L 149.808594 31.710938 L 149.808594 37.714844 L 87.164062 37.714844 Z M 87.164062 31.710938 "/>
</clipPath>
<clipPath id="clip4">
  <path d="M 0.0078125 4.605469 L 27.371094 4.605469 L 27.371094 33.199219 L 0.0078125 33.199219 Z M 0.0078125 4.605469 "/>
</clipPath>
</defs>
<g id="surface1">
<g clip-path="url(#clip1)" clip-rule="nonzero">
<path style=" stroke:none;fill-rule:nonzero;fill:rgb(0%,0%,0%);fill-opacity:1;" d="M 34.535156 0 C 35.171875 0 35.6875 0.671875 35.6875 1.503906 L 35.6875 36.304688 C 35.6875 37.136719 35.171875 37.808594 34.535156 37.808594 C 33.902344 37.808594 33.386719 37.136719 33.386719 36.304688 L 33.386719 1.503906 C 33.386719 0.671875 33.902344 0 34.535156 0 Z M 34.535156 0 "/>
</g>
<g clip-path="url(#clip2)" clip-rule="nonzero">
<path style=" stroke:none;fill-rule:nonzero;fill:rgb(0%,0%,0%);fill-opacity:1;" d="M 51.910156 5.214844 L 46.804688 5.214844 L 46.804688 15.449219 L 51.910156 15.449219 C 52.609375 15.449219 53.269531 15.316406 53.882812 15.050781 C 54.5 14.78125 55.039062 14.414062 55.5 13.953125 C 55.960938 13.492188 56.324219 12.945312 56.59375 12.324219 C 56.859375 11.695312 56.992188 11.03125 56.992188 10.328125 C 56.992188 9.628906 56.859375 8.964844 56.59375 8.34375 C 56.324219 7.71875 55.960938 7.175781 55.5 6.714844 C 55.039062 6.25 54.5 5.886719 53.882812 5.617188 C 53.269531 5.347656 52.609375 5.214844 51.910156 5.214844 Z M 46.804688 20.550781 L 46.804688 25.671875 L 41.710938 25.671875 L 41.710938 0.09375 L 51.910156 0.09375 C 52.847656 0.09375 53.75 0.214844 54.613281 0.460938 C 55.476562 0.703125 56.285156 1.046875 57.039062 1.496094 C 57.789062 1.941406 58.480469 2.472656 59.105469 3.097656 C 59.726562 3.726562 60.257812 4.417969 60.699219 5.179688 C 61.148438 5.9375 61.492188 6.753906 61.734375 7.617188 C 61.976562 8.492188 62.097656 9.394531 62.097656 10.328125 C 62.097656 11.730469 61.832031 13.058594 61.296875 14.304688 C 60.761719 15.546875 60.035156 16.628906 59.113281 17.554688 C 58.183594 18.484375 57.101562 19.214844 55.863281 19.746094 C 54.628906 20.28125 53.308594 20.550781 51.910156 20.550781 Z M 82.558594 20.550781 L 82.558594 25.671875 L 65.082031 25.671875 L 65.082031 0.09375 L 82.558594 0.09375 L 82.558594 5.214844 L 70.1875 5.214844 L 70.1875 10.328125 L 78.554688 10.328125 L 78.554688 15.449219 L 70.1875 15.449219 L 70.1875 20.550781 Z M 103.605469 20.550781 L 103.605469 25.671875 L 86.128906 25.671875 L 86.128906 0.09375 L 103.605469 0.09375 L 103.605469 5.214844 L 91.230469 5.214844 L 91.230469 10.328125 L 99.605469 10.328125 L 99.605469 15.449219 L 91.230469 15.449219 L 91.230469 20.550781 Z M 117.378906 5.214844 L 112.277344 5.214844 L 112.277344 15.449219 L 117.378906 15.449219 C 118.078125 15.449219 118.738281 15.316406 119.355469 15.050781 C 119.96875 14.78125 120.507812 14.414062 120.96875 13.953125 C 121.433594 13.492188 121.796875 12.945312 122.0625 12.324219 C 122.328125 11.695312 122.464844 11.03125 122.464844 10.328125 C 122.464844 9.628906 122.328125 8.964844 122.0625 8.34375 C 121.796875 7.71875 121.433594 7.175781 120.96875 6.714844 C 120.507812 6.25 119.96875 5.886719 119.355469 5.617188 C 118.738281 5.347656 118.078125 5.214844 117.378906 5.214844 Z M 112.277344 20.550781 L 112.277344 25.671875 L 107.179688 25.671875 L 107.179688 0.09375 L 117.378906 0.09375 C 118.316406 0.09375 119.21875 0.214844 120.082031 0.460938 C 120.945312 0.703125 121.753906 1.046875 122.507812 1.496094 C 123.257812 1.941406 123.949219 2.472656 124.574219 3.097656 C 125.195312 3.726562 125.726562 4.417969 126.167969 5.179688 C 126.617188 5.9375 126.960938 6.753906 127.203125 7.617188 C 127.445312 8.492188 127.566406 9.394531 127.566406 10.328125 C 127.566406 11.210938 127.457031 12.066406 127.238281 12.902344 C 127.023438 13.734375 126.707031 14.523438 126.292969 15.273438 C 125.886719 16.019531 125.386719 16.710938 124.792969 17.34375 C 124.199219 17.972656 123.539062 18.515625 122.804688 18.980469 L 125.628906 25.671875 L 120.207031 25.671875 L 117.984375 20.511719 Z M 129.417969 7.765625 C 129.417969 6.707031 129.617188 5.714844 130.023438 4.785156 C 130.425781 3.859375 130.96875 3.046875 131.660156 2.351562 C 132.355469 1.65625 133.164062 1.105469 134.09375 0.699219 C 135.015625 0.296875 136.003906 0.09375 137.054688 0.09375 L 148.757812 0.09375 L 148.757812 5.214844 L 137.054688 5.214844 C 136.703125 5.214844 136.371094 5.28125 136.066406 5.414062 C 135.753906 5.539062 135.484375 5.71875 135.257812 5.953125 C 135.023438 6.1875 134.84375 6.457031 134.710938 6.765625 C 134.578125 7.074219 134.515625 7.410156 134.515625 7.765625 C 134.515625 8.121094 134.578125 8.457031 134.710938 8.773438 C 134.84375 9.085938 135.023438 9.359375 135.257812 9.589844 C 135.484375 9.824219 135.753906 10.007812 136.066406 10.140625 C 136.371094 10.265625 136.703125 10.328125 137.054688 10.328125 L 142.160156 10.328125 C 143.214844 10.328125 144.207031 10.527344 145.136719 10.929688 C 146.070312 11.328125 146.882812 11.875 147.578125 12.570312 C 148.265625 13.269531 148.8125 14.082031 149.207031 15.011719 C 149.605469 15.949219 149.804688 16.945312 149.804688 18 C 149.804688 19.058594 149.605469 20.050781 149.207031 20.980469 C 148.8125 21.90625 148.265625 22.71875 147.578125 23.414062 C 146.882812 24.109375 146.070312 24.660156 145.136719 25.066406 C 144.207031 25.46875 143.214844 25.671875 142.160156 25.671875 L 130.835938 25.671875 L 130.835938 20.550781 L 142.160156 20.550781 C 142.515625 20.550781 142.847656 20.484375 143.15625 20.351562 C 143.464844 20.226562 143.734375 20.046875 143.964844 19.8125 C 144.199219 19.578125 144.378906 19.308594 144.503906 19 C 144.636719 18.691406 144.703125 18.355469 144.703125 18 C 144.703125 17.644531 144.636719 17.3125 144.503906 17 C 144.378906 16.691406 144.199219 16.421875 143.964844 16.1875 C 143.734375 15.960938 143.464844 15.78125 143.15625 15.648438 C 142.847656 15.515625 142.515625 15.449219 142.160156 15.449219 L 137.054688 15.449219 C 136.003906 15.449219 135.015625 15.25 134.09375 14.84375 C 133.164062 14.441406 132.355469 13.890625 131.660156 13.191406 C 130.96875 12.496094 130.425781 11.683594 130.023438 10.753906 C 129.617188 9.816406 129.417969 8.820312 129.417969 7.765625 Z M 129.417969 7.765625 "/>
</g>
<g clip-path="url(#clip3)" clip-rule="nonzero">
<path style=" stroke:none;fill-rule:nonzero;fill:rgb(0%,0%,0%);fill-opacity:1;" d="M 90.878906 37.601562 L 89.921875 37.601562 L 89.671875 36.398438 L 88.351562 36.398438 L 88.109375 37.601562 L 87.167969 37.601562 L 88.457031 32.46875 L 89.597656 32.46875 Z M 89.011719 33.1875 L 88.5 35.6875 L 89.53125 35.6875 Z M 92.117188 37.714844 C 91.847656 37.714844 91.636719 37.632812 91.480469 37.464844 C 91.324219 37.300781 91.25 37.078125 91.25 36.800781 L 91.25 32.097656 L 92.160156 32 L 92.160156 36.761719 C 92.160156 36.828125 92.175781 36.878906 92.203125 36.917969 C 92.234375 36.960938 92.277344 36.980469 92.335938 36.980469 C 92.371094 36.980469 92.40625 36.972656 92.4375 36.964844 C 92.46875 36.953125 92.492188 36.949219 92.5 36.949219 L 92.679688 37.574219 C 92.511719 37.667969 92.324219 37.714844 92.117188 37.714844 Z M 93.960938 37.714844 C 93.691406 37.714844 93.480469 37.632812 93.324219 37.464844 C 93.171875 37.300781 93.09375 37.078125 93.09375 36.800781 L 93.09375 32.097656 L 94.003906 32 L 94.003906 36.761719 C 94.003906 36.828125 94.019531 36.878906 94.046875 36.917969 C 94.078125 36.960938 94.121094 36.980469 94.183594 36.980469 C 94.214844 36.980469 94.25 36.972656 94.28125 36.964844 C 94.3125 36.953125 94.335938 36.949219 94.34375 36.949219 L 94.523438 37.574219 C 94.355469 37.667969 94.167969 37.714844 93.960938 37.714844 Z M 96.433594 33.671875 L 97.34375 33.671875 L 97.34375 37.601562 L 96.433594 37.601562 Z M 96.882812 31.710938 C 97.046875 31.710938 97.179688 31.761719 97.28125 31.867188 C 97.382812 31.96875 97.433594 32.101562 97.433594 32.265625 C 97.433594 32.425781 97.382812 32.558594 97.28125 32.660156 C 97.179688 32.765625 97.046875 32.816406 96.882812 32.816406 C 96.722656 32.816406 96.589844 32.765625 96.488281 32.660156 C 96.386719 32.558594 96.335938 32.425781 96.335938 32.265625 C 96.335938 32.101562 96.386719 31.96875 96.488281 31.867188 C 96.589844 31.761719 96.722656 31.710938 96.882812 31.710938 Z M 100.019531 33.566406 C 100.300781 33.566406 100.523438 33.667969 100.683594 33.871094 C 100.847656 34.074219 100.929688 34.347656 100.929688 34.691406 L 100.929688 37.601562 L 100.019531 37.601562 L 100.019531 34.792969 C 100.019531 34.605469 99.992188 34.46875 99.9375 34.386719 C 99.886719 34.308594 99.8125 34.265625 99.714844 34.265625 C 99.507812 34.265625 99.300781 34.460938 99.097656 34.851562 L 99.097656 37.601562 L 98.1875 37.601562 L 98.1875 33.671875 L 98.980469 33.671875 L 99.046875 34.183594 C 99.179688 33.976562 99.324219 33.820312 99.472656 33.71875 C 99.625 33.617188 99.804688 33.566406 100.019531 33.566406 Z M 104.601562 33.566406 C 105.09375 33.566406 105.480469 33.742188 105.753906 34.089844 C 106.027344 34.433594 106.164062 34.949219 106.164062 35.632812 C 106.164062 36.289062 106.027344 36.796875 105.75 37.164062 C 105.472656 37.53125 105.089844 37.714844 104.601562 37.714844 C 104.113281 37.714844 103.730469 37.535156 103.453125 37.175781 C 103.175781 36.816406 103.039062 36.300781 103.039062 35.632812 C 103.039062 34.96875 103.175781 34.460938 103.453125 34.101562 C 103.730469 33.746094 104.113281 33.566406 104.601562 33.566406 Z M 104.601562 34.257812 C 104.390625 34.257812 104.234375 34.363281 104.136719 34.574219 C 104.035156 34.785156 103.988281 35.136719 103.988281 35.632812 C 103.988281 36.132812 104.035156 36.488281 104.136719 36.699219 C 104.234375 36.910156 104.390625 37.015625 104.601562 37.015625 C 104.8125 37.015625 104.96875 36.910156 105.070312 36.699219 C 105.167969 36.488281 105.214844 36.132812 105.214844 35.632812 C 105.214844 35.132812 105.167969 34.777344 105.070312 34.570312 C 104.96875 34.363281 104.8125 34.257812 104.601562 34.257812 Z M 108.667969 33.566406 C 108.949219 33.566406 109.171875 33.667969 109.335938 33.871094 C 109.5 34.074219 109.578125 34.347656 109.578125 34.691406 L 109.578125 37.601562 L 108.667969 37.601562 L 108.667969 34.792969 C 108.667969 34.605469 108.644531 34.46875 108.589844 34.386719 C 108.539062 34.308594 108.464844 34.265625 108.363281 34.265625 C 108.15625 34.265625 107.953125 34.460938 107.75 34.851562 L 107.75 37.601562 L 106.839844 37.601562 L 106.839844 33.671875 L 107.632812 33.671875 L 107.699219 34.183594 C 107.832031 33.976562 107.972656 33.820312 108.125 33.71875 C 108.273438 33.617188 108.457031 33.566406 108.667969 33.566406 Z M 113.195312 35.542969 C 113.195312 35.589844 113.1875 35.714844 113.171875 35.921875 L 111.148438 35.921875 C 111.171875 36.328125 111.238281 36.613281 111.359375 36.773438 C 111.480469 36.933594 111.652344 37.015625 111.875 37.015625 C 112.03125 37.015625 112.167969 36.988281 112.292969 36.9375 C 112.414062 36.886719 112.546875 36.804688 112.691406 36.6875 L 113.070312 37.210938 C 112.722656 37.546875 112.308594 37.714844 111.824219 37.714844 C 111.3125 37.714844 110.917969 37.535156 110.640625 37.179688 C 110.367188 36.824219 110.230469 36.320312 110.230469 35.671875 C 110.230469 35.023438 110.363281 34.507812 110.625 34.132812 C 110.886719 33.757812 111.257812 33.566406 111.734375 33.566406 C 112.195312 33.566406 112.554688 33.734375 112.808594 34.070312 C 113.066406 34.402344 113.195312 34.894531 113.195312 35.542969 Z M 112.304688 35.328125 L 112.304688 35.277344 C 112.304688 34.90625 112.261719 34.632812 112.171875 34.460938 C 112.082031 34.292969 111.941406 34.207031 111.742188 34.207031 C 111.558594 34.207031 111.421875 34.289062 111.324219 34.453125 C 111.226562 34.621094 111.171875 34.914062 111.148438 35.328125 Z M 118.082031 35.542969 C 118.082031 35.589844 118.074219 35.714844 118.058594 35.921875 L 116.039062 35.921875 C 116.058594 36.328125 116.128906 36.613281 116.25 36.773438 C 116.371094 36.933594 116.542969 37.015625 116.765625 37.015625 C 116.917969 37.015625 117.054688 36.988281 117.179688 36.9375 C 117.300781 36.886719 117.433594 36.804688 117.578125 36.6875 L 117.957031 37.210938 C 117.609375 37.546875 117.195312 37.714844 116.710938 37.714844 C 116.199219 37.714844 115.804688 37.535156 115.53125 37.179688 C 115.257812 36.824219 115.121094 36.320312 115.121094 35.671875 C 115.121094 35.023438 115.25 34.507812 115.511719 34.132812 C 115.773438 33.757812 116.144531 33.566406 116.625 33.566406 C 117.082031 33.566406 117.441406 33.734375 117.699219 34.070312 C 117.953125 34.402344 118.082031 34.894531 118.082031 35.542969 Z M 117.195312 35.328125 L 117.195312 35.277344 C 117.195312 34.90625 117.148438 34.632812 117.058594 34.460938 C 116.972656 34.292969 116.828125 34.207031 116.628906 34.207031 C 116.449219 34.207031 116.308594 34.289062 116.210938 34.453125 C 116.117188 34.621094 116.058594 34.914062 116.039062 35.328125 Z M 120.527344 35.640625 L 118.617188 35.640625 L 118.617188 34.914062 L 120.527344 34.914062 Z M 122.675781 33.566406 C 122.886719 33.566406 123.082031 33.601562 123.253906 33.675781 C 123.425781 33.746094 123.589844 33.859375 123.75 34.011719 L 123.355469 34.535156 C 123.25 34.445312 123.144531 34.378906 123.046875 34.335938 C 122.953125 34.292969 122.847656 34.273438 122.734375 34.273438 C 122.511719 34.273438 122.34375 34.378906 122.230469 34.589844 C 122.117188 34.800781 122.058594 35.15625 122.058594 35.65625 C 122.058594 36.140625 122.117188 36.484375 122.234375 36.683594 C 122.351562 36.878906 122.515625 36.980469 122.734375 36.980469 C 122.84375 36.980469 122.941406 36.960938 123.03125 36.917969 C 123.121094 36.878906 123.222656 36.816406 123.34375 36.734375 L 123.75 37.261719 C 123.433594 37.5625 123.082031 37.714844 122.691406 37.714844 C 122.1875 37.714844 121.792969 37.542969 121.515625 37.199219 C 121.238281 36.855469 121.097656 36.34375 121.097656 35.671875 C 121.097656 35.234375 121.160156 34.859375 121.289062 34.542969 C 121.417969 34.222656 121.601562 33.980469 121.839844 33.816406 C 122.082031 33.648438 122.359375 33.566406 122.675781 33.566406 Z M 125.59375 33.566406 C 126.085938 33.566406 126.472656 33.742188 126.746094 34.089844 C 127.019531 34.433594 127.15625 34.949219 127.15625 35.632812 C 127.15625 36.289062 127.019531 36.796875 126.742188 37.164062 C 126.464844 37.53125 126.082031 37.714844 125.59375 37.714844 C 125.105469 37.714844 124.722656 37.535156 124.445312 37.175781 C 124.167969 36.816406 124.03125 36.300781 124.03125 35.632812 C 124.03125 34.96875 124.167969 34.460938 124.445312 34.101562 C 124.722656 33.746094 125.105469 33.566406 125.59375 33.566406 Z M 125.59375 34.257812 C 125.382812 34.257812 125.226562 34.363281 125.128906 34.574219 C 125.027344 34.785156 124.980469 35.136719 124.980469 35.632812 C 124.980469 36.132812 125.027344 36.488281 125.128906 36.699219 C 125.226562 36.910156 125.382812 37.015625 125.59375 37.015625 C 125.804688 37.015625 125.960938 36.910156 126.0625 36.699219 C 126.160156 36.488281 126.207031 36.132812 126.207031 35.632812 C 126.207031 35.132812 126.160156 34.777344 126.0625 34.570312 C 125.960938 34.363281 125.804688 34.257812 125.59375 34.257812 Z M 131.332031 33.566406 C 131.59375 33.566406 131.804688 33.667969 131.964844 33.871094 C 132.121094 34.074219 132.199219 34.347656 132.199219 34.691406 L 132.199219 37.601562 L 131.304688 37.601562 L 131.304688 34.785156 C 131.304688 34.597656 131.277344 34.464844 131.230469 34.378906 C 131.179688 34.300781 131.109375 34.257812 131.015625 34.257812 C 130.824219 34.257812 130.636719 34.441406 130.460938 34.808594 L 130.460938 37.601562 L 129.570312 37.601562 L 129.570312 34.785156 C 129.570312 34.433594 129.476562 34.257812 129.289062 34.257812 C 129.085938 34.257812 128.898438 34.441406 128.726562 34.808594 L 128.726562 37.601562 L 127.828125 37.601562 L 127.828125 33.671875 L 128.621094 33.671875 L 128.679688 34.175781 C 128.9375 33.769531 129.246094 33.566406 129.609375 33.566406 C 129.789062 33.566406 129.949219 33.625 130.082031 33.738281 C 130.214844 33.851562 130.316406 34.011719 130.386719 34.222656 C 130.648438 33.785156 130.964844 33.566406 131.332031 33.566406 Z M 136.519531 33.566406 C 136.78125 33.566406 136.992188 33.667969 137.148438 33.871094 C 137.304688 34.074219 137.386719 34.347656 137.386719 34.691406 L 137.386719 37.601562 L 136.488281 37.601562 L 136.488281 34.785156 C 136.488281 34.597656 136.464844 34.464844 136.414062 34.378906 C 136.367188 34.300781 136.292969 34.257812 136.199219 34.257812 C 136.007812 34.257812 135.824219 34.441406 135.644531 34.808594 L 135.644531 37.601562 L 134.757812 37.601562 L 134.757812 34.785156 C 134.757812 34.433594 134.660156 34.257812 134.472656 34.257812 C 134.273438 34.257812 134.085938 34.441406 133.910156 34.808594 L 133.910156 37.601562 L 133.015625 37.601562 L 133.015625 33.671875 L 133.808594 33.671875 L 133.867188 34.175781 C 134.125 33.769531 134.433594 33.566406 134.792969 33.566406 C 134.976562 33.566406 135.132812 33.625 135.265625 33.738281 C 135.398438 33.851562 135.5 34.011719 135.570312 34.222656 C 135.832031 33.785156 136.148438 33.566406 136.519531 33.566406 Z M 140.992188 35.542969 C 140.992188 35.589844 140.984375 35.714844 140.972656 35.921875 L 138.949219 35.921875 C 138.96875 36.328125 139.039062 36.613281 139.160156 36.773438 C 139.28125 36.933594 139.453125 37.015625 139.675781 37.015625 C 139.828125 37.015625 139.964844 36.988281 140.089844 36.9375 C 140.214844 36.886719 140.347656 36.804688 140.488281 36.6875 L 140.867188 37.210938 C 140.523438 37.546875 140.105469 37.714844 139.621094 37.714844 C 139.109375 37.714844 138.714844 37.535156 138.441406 37.179688 C 138.167969 36.824219 138.03125 36.320312 138.03125 35.671875 C 138.03125 35.023438 138.160156 34.507812 138.421875 34.132812 C 138.683594 33.757812 139.054688 33.566406 139.535156 33.566406 C 139.992188 33.566406 140.351562 33.734375 140.609375 34.070312 C 140.863281 34.402344 140.992188 34.894531 140.992188 35.542969 Z M 140.105469 35.328125 L 140.105469 35.277344 C 140.105469 34.90625 140.058594 34.632812 139.972656 34.460938 C 139.882812 34.292969 139.738281 34.207031 139.542969 34.207031 C 139.359375 34.207031 139.21875 34.289062 139.121094 34.453125 C 139.027344 34.621094 138.96875 34.914062 138.949219 35.328125 Z M 143.355469 33.574219 C 143.46875 33.574219 143.570312 33.59375 143.660156 33.628906 L 143.511719 34.503906 C 143.414062 34.480469 143.320312 34.46875 143.238281 34.46875 C 143.050781 34.46875 142.902344 34.546875 142.792969 34.710938 C 142.683594 34.875 142.601562 35.117188 142.542969 35.441406 L 142.542969 37.601562 L 141.628906 37.601562 L 141.628906 33.671875 L 142.421875 33.671875 L 142.488281 34.355469 C 142.671875 33.835938 142.960938 33.574219 143.355469 33.574219 Z M 145.488281 33.566406 C 145.699219 33.566406 145.894531 33.601562 146.066406 33.675781 C 146.238281 33.746094 146.40625 33.859375 146.5625 34.011719 L 146.167969 34.535156 C 146.0625 34.445312 145.957031 34.378906 145.863281 34.335938 C 145.765625 34.292969 145.660156 34.273438 145.546875 34.273438 C 145.324219 34.273438 145.15625 34.378906 145.042969 34.589844 C 144.929688 34.800781 144.875 35.15625 144.875 35.65625 C 144.875 36.140625 144.933594 36.484375 145.046875 36.683594 C 145.164062 36.878906 145.332031 36.980469 145.546875 36.980469 C 145.65625 36.980469 145.753906 36.960938 145.84375 36.917969 C 145.933594 36.878906 146.035156 36.816406 146.15625 36.734375 L 146.5625 37.261719 C 146.246094 37.5625 145.894531 37.714844 145.503906 37.714844 C 145 37.714844 144.609375 37.542969 144.328125 37.199219 C 144.050781 36.855469 143.910156 36.34375 143.910156 35.671875 C 143.910156 35.234375 143.972656 34.859375 144.101562 34.542969 C 144.230469 34.222656 144.414062 33.980469 144.65625 33.816406 C 144.894531 33.648438 145.171875 33.566406 145.488281 33.566406 Z M 149.808594 35.542969 C 149.808594 35.589844 149.800781 35.714844 149.785156 35.921875 L 147.761719 35.921875 C 147.78125 36.328125 147.851562 36.613281 147.972656 36.773438 C 148.09375 36.933594 148.265625 37.015625 148.488281 37.015625 C 148.640625 37.015625 148.78125 36.988281 148.902344 36.9375 C 149.027344 36.886719 149.160156 36.804688 149.304688 36.6875 L 149.679688 37.210938 C 149.335938 37.546875 148.921875 37.714844 148.4375 37.714844 C 147.921875 37.714844 147.53125 37.535156 147.253906 37.179688 C 146.980469 36.824219 146.84375 36.320312 146.84375 35.671875 C 146.84375 35.023438 146.976562 34.507812 147.238281 34.132812 C 147.5 33.757812 147.867188 33.566406 148.347656 33.566406 C 148.808594 33.566406 149.164062 33.734375 149.421875 34.070312 C 149.679688 34.402344 149.808594 34.894531 149.808594 35.542969 Z M 148.917969 35.328125 L 148.917969 35.277344 C 148.917969 34.90625 148.875 34.632812 148.785156 34.460938 C 148.695312 34.292969 148.550781 34.207031 148.355469 34.207031 C 148.171875 34.207031 148.03125 34.289062 147.9375 34.453125 C 147.839844 34.621094 147.78125 34.914062 147.761719 35.328125 Z M 148.917969 35.328125 "/>
</g>
<g clip-path="url(#clip4)" clip-rule="nonzero">
<path style=" stroke:none;fill-rule:evenodd;fill:rgb(0%,0%,0%);fill-opacity:1;" d="M 4.566406 8.039062 L 4.566406 4.605469 L 0.0078125 4.605469 L 0.0078125 6.894531 L 2.289062 6.894531 L 2.289062 21.765625 C 2.289062 23.023438 3.3125 24.050781 4.566406 24.050781 L 4.566406 29.769531 L 7.191406 29.769531 C 6.960938 30.113281 6.847656 30.457031 6.847656 30.914062 C 6.847656 32.171875 7.875 33.203125 9.128906 33.203125 C 10.382812 33.203125 11.40625 32.171875 11.40625 30.914062 C 11.40625 30.457031 11.292969 30.113281 11.066406 29.769531 L 18.589844 29.769531 C 18.363281 30.113281 18.25 30.457031 18.25 30.914062 C 18.25 32.171875 19.273438 33.203125 20.527344 33.203125 C 21.78125 33.203125 22.808594 32.171875 22.808594 30.914062 C 22.808594 30.457031 22.695312 30.113281 22.464844 29.769531 L 25.089844 29.769531 L 25.089844 27.484375 L 6.847656 27.484375 L 6.847656 24.050781 L 25.089844 24.050781 C 26.34375 24.050781 27.367188 23.023438 27.367188 21.765625 L 27.367188 8.039062 Z M 6.847656 21.765625 L 4.566406 21.765625 L 4.566406 19.476562 L 6.847656 19.476562 Z M 6.847656 17.1875 L 4.566406 17.1875 L 4.566406 14.902344 L 6.847656 14.902344 Z M 6.847656 12.613281 L 4.566406 12.613281 L 4.566406 10.324219 L 6.847656 10.324219 Z M 11.40625 21.765625 L 9.128906 21.765625 L 9.128906 19.476562 L 11.40625 19.476562 Z M 11.40625 17.1875 L 9.128906 17.1875 L 9.128906 14.902344 L 11.40625 14.902344 Z M 11.40625 12.613281 L 9.128906 12.613281 L 9.128906 10.324219 L 11.40625 10.324219 Z M 15.96875 21.765625 L 13.6875 21.765625 L 13.6875 19.476562 L 15.96875 19.476562 Z M 15.96875 17.1875 L 13.6875 17.1875 L 13.6875 14.902344 L 15.96875 14.902344 Z M 15.96875 12.613281 L 13.6875 12.613281 L 13.6875 10.324219 L 15.96875 10.324219 Z M 20.527344 21.765625 L 18.25 21.765625 L 18.25 19.476562 L 20.527344 19.476562 Z M 20.527344 17.1875 L 18.25 17.1875 L 18.25 14.902344 L 20.527344 14.902344 Z M 20.527344 12.613281 L 18.25 12.613281 L 18.25 10.324219 L 20.527344 10.324219 Z M 25.089844 21.765625 L 22.808594 21.765625 L 22.808594 19.476562 L 25.089844 19.476562 Z M 25.089844 17.1875 L 22.808594 17.1875 L 22.808594 14.902344 L 25.089844 14.902344 Z M 25.089844 12.613281 L 22.808594 12.613281 L 22.808594 10.324219 L 25.089844 10.324219 Z M 25.089844 12.613281 "/>
</g>
</g>
</svg>
